<?xml version="1.0" encoding="UTF-8" standalone="no"?>
<!-- Generator: Adobe Illustrator 19.0.0, SVG Export Plug-In . SVG Version: 6.00 Build 0)  -->

<svg
   xmlns:dc="http://purl.org/dc/elements/1.1/"
   xmlns:cc="http://creativecommons.org/ns#"
   xmlns:rdf="http://www.w3.org/1999/02/22-rdf-syntax-ns#"
   xmlns:svg="http://www.w3.org/2000/svg"
   xmlns="http://www.w3.org/2000/svg"
   xmlns:sodipodi="http://sodipodi.sourceforge.net/DTD/sodipodi-0.dtd"
   xmlns:inkscape="http://www.inkscape.org/namespaces/inkscape"
   version="1.1"
   id="Capa_1"
   x="0px"
   y="0px"
   viewBox="0 0 464 464"
   style="enable-background:new 0 0 464 464;"
   xml:space="preserve"
   sodipodi:docname="award.svg"
   inkscape:version="0.92.3 (2405546, 2018-03-11)"><metadata
   id="metadata55"><rdf:RDF><cc:Work
       rdf:about=""><dc:format>image/svg+xml</dc:format><dc:type
         rdf:resource="http://purl.org/dc/dcmitype/StillImage" /><dc:title></dc:title></cc:Work></rdf:RDF></metadata><defs
   id="defs53" /><sodipodi:namedview
   pagecolor="#ffffff"
   bordercolor="#666666"
   borderopacity="1"
   objecttolerance="10"
   gridtolerance="10"
   guidetolerance="10"
   inkscape:pageopacity="0"
   inkscape:pageshadow="2"
   inkscape:window-width="1280"
   inkscape:window-height="657"
   id="namedview51"
   showgrid="false"
   inkscape:zoom="0.50862069"
   inkscape:cx="232"
   inkscape:cy="232"
   inkscape:window-x="-8"
   inkscape:window-y="-8"
   inkscape:window-maximized="1"
   inkscape:current-layer="Capa_1" />
<g
   id="g6">
	<g
   id="g4">
		
	</g>
</g>
<g
   id="g12">
	<g
   id="g10">
		
	</g>
</g>
<g
   id="g18">
	<g
   id="g16">
		<path
   id="path14"
   d="m 324.304,174.584 c -3.01,-4.135 -7.814,-6.582 -12.928,-6.584 H 262.4 l -15.2,-46.616 c -2.759,-8.395 -11.801,-12.963 -20.196,-10.204 -4.829,1.587 -8.617,5.375 -10.204,10.204 L 201.64,168 h -49.016 c -8.837,-0.004 -16.004,7.155 -16.008,15.992 -0.003,5.12 2.445,9.931 6.584,12.944 l 39.648,28.8 -15.144,46.616 c -2.732,8.404 1.867,17.431 10.27,20.162 4.873,1.584 10.209,0.738 14.354,-2.274 L 232,261.448 l 39.656,28.8 c 5.586,4.15 13.23,4.15 18.816,0 5.669,-4.029 8.029,-11.297 5.808,-17.888 l -15.144,-46.624 39.648,-28.8 c 7.145,-5.2 8.721,-15.208 3.52,-22.352 z m -57.28,41.632 c -2.806,2.039 -3.979,5.654 -2.904,8.952 l 16.944,52.144 -44.36,-32.224 c -2.803,-2.035 -6.597,-2.035 -9.4,0 l -44.36,32.224 16.936,-52.144 c 1.071,-3.296 -0.101,-6.906 -2.904,-8.944 L 152.624,184 h 54.824 c 3.466,0 6.537,-2.232 7.608,-5.528 L 232,126.328 l 16.944,52.136 c 1.071,3.296 4.142,5.528 7.608,5.528 L 311.376,184 Z M 232,64 c -79.529,0 -144,64.471 -144,144 0,79.529 64.471,144 144,144 79.529,0 144,-64.471 144,-144 C 375.908,128.509 311.491,64.093 232,64 Z m 0,272 c -70.692,0 -128,-57.308 -128,-128 0,-70.692 57.308,-128 128,-128 70.692,0 128,57.308 128,128 -0.084,70.658 -57.342,127.916 -128,128 z m 190.32,67.096 -48.68,-62.584 c 15.774,-4.713 29.4,-14.801 38.512,-28.512 11.464,-19.816 6.28,-44 1.264,-67.36 -3.033,-12 -4.848,-24.276 -5.416,-36.64 0.566,-12.375 2.38,-24.662 5.416,-36.672 C 418.4,147.952 423.616,123.784 412.152,104 400.28,83.488 376.376,75.896 353.256,68.568 341.747,65.397 330.601,61.032 320,55.544 310.38,49.304 301.448,42.064 293.352,33.944 276.2,18.024 256.752,0 232,0 207.248,0 187.8,18.024 170.64,33.936 162.547,42.058 153.617,49.301 144,55.544 c -10.6,5.477 -21.743,9.831 -33.248,12.992 -23.12,7.328 -47.024,14.92 -58.896,35.432 -11.464,19.816 -6.28,44 -1.264,67.36 3.033,12.011 4.845,24.297 5.408,36.672 -0.566,12.375 -2.38,24.662 -5.416,36.672 -4.984,23.376 -10.2,47.544 1.264,67.328 9.124,13.716 22.765,23.801 38.552,28.504 l -48.72,62.584 c -2.712,3.488 -2.083,8.514 1.406,11.226 1.676,1.303 3.8,1.886 5.906,1.622 l 57.2,-7.144 14.12,49.408 c 0.827,2.896 3.211,5.082 6.168,5.656 0.501,0.095 1.01,0.144 1.52,0.144 2.47,0.002 4.803,-1.138 6.32,-3.088 L 185.408,395.2 c 12.572,12.239 29.086,19.612 46.592,20.8 17.506,-1.188 34.02,-8.561 46.592,-20.8 l 51.088,65.688 c 1.512,1.959 3.845,3.108 6.32,3.112 0.51,0 1.019,-0.049 1.52,-0.144 2.957,-0.574 5.341,-2.76 6.168,-5.656 l 14.12,-49.4 57.2,7.144 c 4.384,0.55 8.384,-2.558 8.934,-6.942 0.264,-2.106 -0.319,-4.23 -1.622,-5.906 z M 131.36,438.648 119.688,397.8 c -1.085,-3.789 -4.769,-6.223 -8.68,-5.736 l -44.8,5.6 40.152,-51.616 4.424,1.416 c 11.494,3.163 22.626,7.517 33.216,12.992 9.62,6.24 18.552,13.48 26.648,21.6 L 173.4,384.6 Z M 232,400 C 213.52,400 197.976,385.6 181.512,370.336 172.555,361.387 162.661,353.43 152,346.6 140.401,340.528 128.191,335.701 115.576,332.2 94.432,325.488 74.456,319.152 65.688,304 57.32,289.528 61.64,269.36 66.224,248 69.523,234.901 71.459,221.497 72,208 71.462,194.503 69.529,181.099 66.232,168 61.648,146.648 57.328,126.48 65.696,112 74.496,96.848 94.44,90.512 115.584,83.8 128.197,80.298 140.403,75.471 152,69.4 162.658,62.57 172.55,54.612 181.504,45.664 197.976,30.4 213.52,16 232,16 c 18.48,0 34.024,14.4 50.488,29.664 8.957,8.949 18.851,16.906 29.512,23.736 11.599,6.072 23.809,10.899 36.424,14.4 21.144,6.712 41.12,13.048 49.888,28.2 8.368,14.472 4.048,34.64 -0.536,56 -3.299,13.099 -5.235,26.503 -5.776,40 0.538,13.497 2.471,26.901 5.768,40 4.584,21.352 8.904,41.52 0.536,56 -8.8,15.152 -28.744,21.488 -49.888,28.2 -12.613,3.502 -24.819,8.329 -36.416,14.4 -10.658,6.83 -20.55,14.788 -29.504,23.736 C 266.024,385.6 250.48,400 232,400 Z m 121.032,-7.936 c -3.911,-0.487 -7.595,1.947 -8.68,5.736 l -11.712,40.848 -42.032,-54.04 2.752,-2.544 c 8.093,-8.122 17.023,-15.365 26.64,-21.608 10.6,-5.477 21.743,-9.831 33.248,-12.992 l 4.424,-1.416 40.16,51.616 z" />
	</g>
</g>
<g
   id="g20">
</g>
<g
   id="g22">
</g>
<g
   id="g24">
</g>
<g
   id="g26">
</g>
<g
   id="g28">
</g>
<g
   id="g30">
</g>
<g
   id="g32">
</g>
<g
   id="g34">
</g>
<g
   id="g36">
</g>
<g
   id="g38">
</g>
<g
   id="g40">
</g>
<g
   id="g42">
</g>
<g
   id="g44">
</g>
<g
   id="g46">
</g>
<g
   id="g48">
</g>
</svg>