<?xml version="1.0" encoding="UTF-8" standalone="no"?>
<!-- Generator: Adobe Illustrator 19.0.0, SVG Export Plug-In . SVG Version: 6.00 Build 0)  -->

<svg
   xmlns:dc="http://purl.org/dc/elements/1.1/"
   xmlns:cc="http://creativecommons.org/ns#"
   xmlns:rdf="http://www.w3.org/1999/02/22-rdf-syntax-ns#"
   xmlns:svg="http://www.w3.org/2000/svg"
   xmlns="http://www.w3.org/2000/svg"
   xmlns:sodipodi="http://sodipodi.sourceforge.net/DTD/sodipodi-0.dtd"
   xmlns:inkscape="http://www.inkscape.org/namespaces/inkscape"
   version="1.1"
   id="Capa_1"
   x="0px"
   y="0px"
   viewBox="0 0 508.013 508.013"
   style="enable-background:new 0 0 508.013 508.013;"
   xml:space="preserve"
   sodipodi:docname="sport.svg"
   inkscape:version="0.92.3 (2405546, 2018-03-11)"><metadata
   id="metadata43"><rdf:RDF><cc:Work
       rdf:about=""><dc:format>image/svg+xml</dc:format><dc:type
         rdf:resource="http://purl.org/dc/dcmitype/StillImage" /><dc:title></dc:title></cc:Work></rdf:RDF></metadata><defs
   id="defs41" /><sodipodi:namedview
   pagecolor="#ffffff"
   bordercolor="#666666"
   borderopacity="1"
   objecttolerance="10"
   gridtolerance="10"
   guidetolerance="10"
   inkscape:pageopacity="0"
   inkscape:pageshadow="2"
   inkscape:window-width="716"
   inkscape:window-height="480"
   id="namedview39"
   showgrid="false"
   inkscape:zoom="0.46455504"
   inkscape:cx="254.0065"
   inkscape:cy="254.0065"
   inkscape:window-x="0"
   inkscape:window-y="0"
   inkscape:window-maximized="0"
   inkscape:current-layer="Capa_1" />
<g
   id="g6">
	<g
   id="g4">
		<path
   d="M477.363,172.513c5.3-2.3,10.7-5.9,16-11.1c25.8-25.8,12.1-54.8,0-66.9l-80.4-80.4c-18.8-18.8-48.3-18.7-66.9,0    c-4.8,4.8-8.3,10.4-10.7,16.4l-6.4-6.4c-17-17-43.6-23.4-67,0c-21.6,21.6-18.1,48.9,0,66.9l43.7,43.7l-171,171l-43.7-43.7    c-18.1-18.1-45.3-21.6-66.9,0c-23.4,23.4-16.9,50,0,66.9l6.4,6.4c-6,2.3-11.6,5.8-16.4,10.7c-18.7,18.7-18.8,48.1,0,66.9    l80.4,80.4c12.1,12.1,41.1,25.8,66.9,0c5.3-5.3,8.8-10.6,11.1-16l5.9,5.9c18.5,18.4,48.5,18.4,66.9,0c8.9-8.9,13.9-20.8,13.9-33.5    c0-12.6-4.9-24.5-13.9-33.5l-43.7-43.7l171-171l43.7,43.7c8.9,8.9,20.8,13.9,33.5,13.9c12.6,0,24.5-4.9,33.5-13.9    c18.4-18.4,18.4-48.5,0-66.9L477.363,172.513z M141.463,473.413c-7.5,7.5-19.8,7.3-27.1,0l-80.4-80.4c-7.6-7.7-8.1-19,0-27.1    c7.5-7.5,19.6-7.5,27.1,0l80.5,80.5C148.663,453.613,148.663,466.213,141.463,473.413z M225.463,436.313c7.2,7.2,7.2,19.9,0,27.1    c-7.5,7.5-19.6,7.5-27.1,0l-154.4-154.4c-7.2-7.2-7.9-19.1,0-27.1c8-8,19.7-7.4,27.1,0L225.463,436.313z M181.663,352.713    l-27.1-27.1l171-171l27.1,27.1L181.663,352.713z M463.363,225.513c-7.2,7.2-19.9,7.2-27.1,0l-154.4-154.4c-7.3-7.3-8-19.1,0-27.1    c7.9-7.9,19.9-7.2,27.1,0l154.4,154.4C470.863,205.913,470.863,218.013,463.363,225.513z M446.363,141.513l-80.5-80.5    c-7.5-7.5-7.5-19.6,0-27.1c8.1-8.1,19.4-7.7,27.1,0l80.4,80.4c7.3,7.3,7.5,19.6,0,27.1    C466.163,148.713,453.563,148.713,446.363,141.513z"
   id="path2" />
	</g>
</g>
<g
   id="g8">
</g>
<g
   id="g10">
</g>
<g
   id="g12">
</g>
<g
   id="g14">
</g>
<g
   id="g16">
</g>
<g
   id="g18">
</g>
<g
   id="g20">
</g>
<g
   id="g22">
</g>
<g
   id="g24">
</g>
<g
   id="g26">
</g>
<g
   id="g28">
</g>
<g
   id="g30">
</g>
<g
   id="g32">
</g>
<g
   id="g34">
</g>
<g
   id="g36">
</g>
</svg>